<mxfile host="65bd71144e">
    <diagram id="Yh6zd7z00CnODI3mVesU" name="Page-1">
        <mxGraphModel dx="482" dy="1750" grid="1" gridSize="10" guides="1" tooltips="1" connect="1" arrows="1" fold="1" page="1" pageScale="1" pageWidth="1920" pageHeight="1200" math="0" shadow="0">
            <root>
                <mxCell id="0"/>
                <mxCell id="1" parent="0"/>
                <mxCell id="2" value="" style="rounded=0;whiteSpace=wrap;html=1;" vertex="1" parent="1">
                    <mxGeometry x="90" y="-680" width="1790" height="1240" as="geometry"/>
                </mxCell>
                <mxCell id="Duz9NZ7eolLml3cjH5N_-71" value="" style="shape=hexagon;perimeter=hexagonPerimeter2;whiteSpace=wrap;html=1;fixedSize=1;" parent="1" vertex="1">
                    <mxGeometry x="860" y="-560" width="430" height="270" as="geometry"/>
                </mxCell>
                <mxCell id="Duz9NZ7eolLml3cjH5N_-52" value="" style="endArrow=classic;html=1;rounded=0;exitX=0.5;exitY=0;exitDx=0;exitDy=0;entryX=0.241;entryY=0.939;entryDx=0;entryDy=0;entryPerimeter=0;" parent="1" source="Duz9NZ7eolLml3cjH5N_-47" target="Duz9NZ7eolLml3cjH5N_-59" edge="1">
                    <mxGeometry width="50" height="50" relative="1" as="geometry">
                        <mxPoint x="930" y="-350" as="sourcePoint"/>
                        <mxPoint x="850" y="-590" as="targetPoint"/>
                    </mxGeometry>
                </mxCell>
                <mxCell id="Duz9NZ7eolLml3cjH5N_-18" value="" style="rounded=0;whiteSpace=wrap;html=1;" parent="1" vertex="1">
                    <mxGeometry x="110" y="-550" width="490" height="370" as="geometry"/>
                </mxCell>
                <mxCell id="Duz9NZ7eolLml3cjH5N_-1" value="enter app&lt;br&gt;GET airports&lt;br&gt;then populate list of airports" style="rounded=0;whiteSpace=wrap;html=1;" parent="1" vertex="1">
                    <mxGeometry x="280" y="-540" width="160" height="60" as="geometry"/>
                </mxCell>
                <mxCell id="Duz9NZ7eolLml3cjH5N_-2" value="API" style="shape=image;html=1;verticalLabelPosition=bottom;verticalAlign=top;imageAspect=1;aspect=fixed;image=img/clipart/Gear_128x128.png" parent="1" vertex="1">
                    <mxGeometry x="840" y="-1000" width="255.75" height="300" as="geometry"/>
                </mxCell>
                <mxCell id="Duz9NZ7eolLml3cjH5N_-5" value="User provides postcode&lt;br&gt;GET lat/long&lt;br&gt;then filter national airports" style="rounded=0;whiteSpace=wrap;html=1;" parent="1" vertex="1">
                    <mxGeometry x="280" y="-420" width="160" height="60" as="geometry"/>
                </mxCell>
                <mxCell id="Duz9NZ7eolLml3cjH5N_-6" value="Google api" style="shape=image;html=1;verticalLabelPosition=bottom;verticalAlign=top;imageAspect=1;aspect=fixed;image=img/clipart/Gear_128x128.png" parent="1" vertex="1">
                    <mxGeometry x="130" y="-425.19" width="60" height="70.38" as="geometry"/>
                </mxCell>
                <mxCell id="Duz9NZ7eolLml3cjH5N_-8" value="" style="endArrow=classic;startArrow=classic;html=1;rounded=0;exitX=1;exitY=0.5;exitDx=0;exitDy=0;" parent="1" source="Duz9NZ7eolLml3cjH5N_-6" edge="1">
                    <mxGeometry width="50" height="50" relative="1" as="geometry">
                        <mxPoint x="200" y="-359.62" as="sourcePoint"/>
                        <mxPoint x="280" y="-390" as="targetPoint"/>
                    </mxGeometry>
                </mxCell>
                <mxCell id="Duz9NZ7eolLml3cjH5N_-9" value="" style="endArrow=classic;startArrow=classic;html=1;rounded=0;entryX=-0.014;entryY=0.779;entryDx=0;entryDy=0;entryPerimeter=0;" parent="1" source="Duz9NZ7eolLml3cjH5N_-1" target="Duz9NZ7eolLml3cjH5N_-2" edge="1">
                    <mxGeometry width="50" height="50" relative="1" as="geometry">
                        <mxPoint x="440" y="-540" as="sourcePoint"/>
                        <mxPoint x="490" y="-590" as="targetPoint"/>
                    </mxGeometry>
                </mxCell>
                <mxCell id="Duz9NZ7eolLml3cjH5N_-10" value="" style="endArrow=classic;html=1;rounded=0;entryX=0.5;entryY=0;entryDx=0;entryDy=0;exitX=0.5;exitY=1;exitDx=0;exitDy=0;" parent="1" source="Duz9NZ7eolLml3cjH5N_-1" target="Duz9NZ7eolLml3cjH5N_-5" edge="1">
                    <mxGeometry width="50" height="50" relative="1" as="geometry">
                        <mxPoint x="380" y="-475.19" as="sourcePoint"/>
                        <mxPoint x="330" y="-425.19" as="targetPoint"/>
                    </mxGeometry>
                </mxCell>
                <mxCell id="Duz9NZ7eolLml3cjH5N_-11" value="User selects DEPARTURE airport. &lt;br&gt;If no DESTINATION airport in state&lt;br&gt;DEPARTURE airport filtered from DESTINATION list" style="rounded=0;whiteSpace=wrap;html=1;" parent="1" vertex="1">
                    <mxGeometry x="120" y="-270" width="190" height="80" as="geometry"/>
                </mxCell>
                <mxCell id="Duz9NZ7eolLml3cjH5N_-12" value="user selects DESTINATION airport&lt;br&gt;if no DEPARTURE airport in state&lt;br&gt;DESTINATION airport filtered from DEPARTURE list" style="rounded=0;whiteSpace=wrap;html=1;" parent="1" vertex="1">
                    <mxGeometry x="400" y="-270" width="190" height="80" as="geometry"/>
                </mxCell>
                <mxCell id="Duz9NZ7eolLml3cjH5N_-13" value="" style="endArrow=classic;html=1;rounded=0;entryX=0.623;entryY=-0.009;entryDx=0;entryDy=0;entryPerimeter=0;" parent="1" target="Duz9NZ7eolLml3cjH5N_-11" edge="1">
                    <mxGeometry width="50" height="50" relative="1" as="geometry">
                        <mxPoint x="320" y="-360" as="sourcePoint"/>
                        <mxPoint x="270" y="-310" as="targetPoint"/>
                    </mxGeometry>
                </mxCell>
                <mxCell id="Duz9NZ7eolLml3cjH5N_-14" value="" style="endArrow=classic;html=1;rounded=0;exitX=0.5;exitY=1;exitDx=0;exitDy=0;entryX=0.231;entryY=-0.023;entryDx=0;entryDy=0;entryPerimeter=0;" parent="1" source="Duz9NZ7eolLml3cjH5N_-5" target="Duz9NZ7eolLml3cjH5N_-12" edge="1">
                    <mxGeometry width="50" height="50" relative="1" as="geometry">
                        <mxPoint x="420" y="-330" as="sourcePoint"/>
                        <mxPoint x="370" y="-280" as="targetPoint"/>
                    </mxGeometry>
                </mxCell>
                <mxCell id="Duz9NZ7eolLml3cjH5N_-15" value="non&lt;br&gt;destructive&lt;br&gt;filtering" style="endArrow=none;dashed=1;html=1;rounded=0;entryX=0;entryY=0.5;entryDx=0;entryDy=0;exitX=1;exitY=0.5;exitDx=0;exitDy=0;" parent="1" source="Duz9NZ7eolLml3cjH5N_-11" target="Duz9NZ7eolLml3cjH5N_-12" edge="1">
                    <mxGeometry width="50" height="50" relative="1" as="geometry">
                        <mxPoint x="310" y="-190" as="sourcePoint"/>
                        <mxPoint x="360" y="-240" as="targetPoint"/>
                    </mxGeometry>
                </mxCell>
                <mxCell id="Duz9NZ7eolLml3cjH5N_-30" style="edgeStyle=orthogonalEdgeStyle;rounded=0;orthogonalLoop=1;jettySize=auto;html=1;exitX=0.5;exitY=1;exitDx=0;exitDy=0;" parent="1" source="Duz9NZ7eolLml3cjH5N_-19" edge="1">
                    <mxGeometry relative="1" as="geometry">
                        <mxPoint x="350" y="100" as="targetPoint"/>
                    </mxGeometry>
                </mxCell>
                <mxCell id="Duz9NZ7eolLml3cjH5N_-19" value="TOM TOM Distance&lt;br&gt;API" style="shape=image;html=1;verticalLabelPosition=bottom;verticalAlign=top;imageAspect=1;aspect=fixed;image=img/clipart/Gear_128x128.png" parent="1" vertex="1">
                    <mxGeometry x="320" y="-60" width="60" height="70.38" as="geometry"/>
                </mxCell>
                <mxCell id="Duz9NZ7eolLml3cjH5N_-29" style="edgeStyle=orthogonalEdgeStyle;rounded=0;orthogonalLoop=1;jettySize=auto;html=1;exitX=0.5;exitY=1;exitDx=0;exitDy=0;entryX=0;entryY=0.5;entryDx=0;entryDy=0;" parent="1" source="Duz9NZ7eolLml3cjH5N_-21" target="Duz9NZ7eolLml3cjH5N_-19" edge="1">
                    <mxGeometry relative="1" as="geometry"/>
                </mxCell>
                <mxCell id="Duz9NZ7eolLml3cjH5N_-21" value="User's Lat/long" style="rounded=0;whiteSpace=wrap;html=1;" parent="1" vertex="1">
                    <mxGeometry x="160" y="-130" width="120" height="40" as="geometry"/>
                </mxCell>
                <mxCell id="Duz9NZ7eolLml3cjH5N_-28" style="edgeStyle=orthogonalEdgeStyle;rounded=0;orthogonalLoop=1;jettySize=auto;html=1;exitX=0.5;exitY=1;exitDx=0;exitDy=0;entryX=1;entryY=0.5;entryDx=0;entryDy=0;" parent="1" source="Duz9NZ7eolLml3cjH5N_-22" target="Duz9NZ7eolLml3cjH5N_-19" edge="1">
                    <mxGeometry relative="1" as="geometry"/>
                </mxCell>
                <mxCell id="Duz9NZ7eolLml3cjH5N_-22" value="Home airport Lat/long" style="rounded=0;whiteSpace=wrap;html=1;" parent="1" vertex="1">
                    <mxGeometry x="400" y="-130" width="120" height="40" as="geometry"/>
                </mxCell>
                <mxCell id="Duz9NZ7eolLml3cjH5N_-25" value="" style="endArrow=none;dashed=1;html=1;rounded=0;entryX=0.25;entryY=1;entryDx=0;entryDy=0;" parent="1" target="Duz9NZ7eolLml3cjH5N_-18" edge="1">
                    <mxGeometry width="50" height="50" relative="1" as="geometry">
                        <mxPoint x="227" y="-130" as="sourcePoint"/>
                        <mxPoint x="270" y="-10" as="targetPoint"/>
                    </mxGeometry>
                </mxCell>
                <mxCell id="Duz9NZ7eolLml3cjH5N_-26" value="" style="endArrow=none;dashed=1;html=1;rounded=0;entryX=0.71;entryY=1.004;entryDx=0;entryDy=0;exitX=0.5;exitY=0;exitDx=0;exitDy=0;entryPerimeter=0;" parent="1" source="Duz9NZ7eolLml3cjH5N_-22" target="Duz9NZ7eolLml3cjH5N_-18" edge="1">
                    <mxGeometry width="50" height="50" relative="1" as="geometry">
                        <mxPoint x="430" y="-140" as="sourcePoint"/>
                        <mxPoint x="410" y="-150" as="targetPoint"/>
                    </mxGeometry>
                </mxCell>
                <mxCell id="Duz9NZ7eolLml3cjH5N_-33" style="edgeStyle=orthogonalEdgeStyle;rounded=0;orthogonalLoop=1;jettySize=auto;html=1;exitX=0.5;exitY=1;exitDx=0;exitDy=0;entryX=0.5;entryY=0;entryDx=0;entryDy=0;" parent="1" source="Duz9NZ7eolLml3cjH5N_-31" target="Duz9NZ7eolLml3cjH5N_-32" edge="1">
                    <mxGeometry relative="1" as="geometry"/>
                </mxCell>
                <mxCell id="Duz9NZ7eolLml3cjH5N_-31" value="Distance to airport&lt;br&gt;(miles)" style="rounded=0;whiteSpace=wrap;html=1;" parent="1" vertex="1">
                    <mxGeometry x="290" y="100" width="120" height="60" as="geometry"/>
                </mxCell>
                <mxCell id="Duz9NZ7eolLml3cjH5N_-38" style="edgeStyle=orthogonalEdgeStyle;rounded=0;orthogonalLoop=1;jettySize=auto;html=1;exitX=0.5;exitY=1;exitDx=0;exitDy=0;entryX=0.5;entryY=0;entryDx=0;entryDy=0;" parent="1" source="Duz9NZ7eolLml3cjH5N_-32" target="Duz9NZ7eolLml3cjH5N_-36" edge="1">
                    <mxGeometry relative="1" as="geometry"/>
                </mxCell>
                <mxCell id="Duz9NZ7eolLml3cjH5N_-32" value="User enters number of passengers" style="rounded=0;whiteSpace=wrap;html=1;" parent="1" vertex="1">
                    <mxGeometry x="290" y="210" width="120" height="60" as="geometry"/>
                </mxCell>
                <mxCell id="Duz9NZ7eolLml3cjH5N_-34" value="Radio Option 1&lt;br&gt;CAR" style="rounded=0;whiteSpace=wrap;html=1;" parent="1" vertex="1">
                    <mxGeometry x="165" y="420" width="120" height="60" as="geometry"/>
                </mxCell>
                <mxCell id="Duz9NZ7eolLml3cjH5N_-35" value="Radio Option 2&lt;br&gt;TAXI" style="rounded=0;whiteSpace=wrap;html=1;" parent="1" vertex="1">
                    <mxGeometry x="405" y="420" width="120" height="60" as="geometry"/>
                </mxCell>
                <mxCell id="Duz9NZ7eolLml3cjH5N_-39" style="edgeStyle=orthogonalEdgeStyle;rounded=0;orthogonalLoop=1;jettySize=auto;html=1;exitX=0.25;exitY=1;exitDx=0;exitDy=0;" parent="1" source="Duz9NZ7eolLml3cjH5N_-36" target="Duz9NZ7eolLml3cjH5N_-34" edge="1">
                    <mxGeometry relative="1" as="geometry"/>
                </mxCell>
                <mxCell id="Duz9NZ7eolLml3cjH5N_-40" style="edgeStyle=orthogonalEdgeStyle;rounded=0;orthogonalLoop=1;jettySize=auto;html=1;exitX=0.75;exitY=1;exitDx=0;exitDy=0;entryX=0.5;entryY=0;entryDx=0;entryDy=0;" parent="1" source="Duz9NZ7eolLml3cjH5N_-36" target="Duz9NZ7eolLml3cjH5N_-35" edge="1">
                    <mxGeometry relative="1" as="geometry"/>
                </mxCell>
                <mxCell id="7" value="Number of vehicles" style="edgeStyle=none;html=1;exitX=1;exitY=0.5;exitDx=0;exitDy=0;" edge="1" parent="1" source="Duz9NZ7eolLml3cjH5N_-36" target="3">
                    <mxGeometry relative="1" as="geometry"/>
                </mxCell>
                <mxCell id="Duz9NZ7eolLml3cjH5N_-36" value="Calculates&lt;br&gt;CAR / TAXI&lt;br&gt;cost in background" style="rounded=0;whiteSpace=wrap;html=1;" parent="1" vertex="1">
                    <mxGeometry x="290" y="320" width="120" height="60" as="geometry"/>
                </mxCell>
                <mxCell id="Duz9NZ7eolLml3cjH5N_-41" value="green&lt;br&gt;for cheapest" style="endArrow=none;dashed=1;html=1;rounded=0;exitX=1;exitY=0.5;exitDx=0;exitDy=0;" parent="1" source="Duz9NZ7eolLml3cjH5N_-34" edge="1">
                    <mxGeometry width="50" height="50" relative="1" as="geometry">
                        <mxPoint x="325" y="475" as="sourcePoint"/>
                        <mxPoint x="400" y="450" as="targetPoint"/>
                    </mxGeometry>
                </mxCell>
                <mxCell id="Duz9NZ7eolLml3cjH5N_-46" value="DEPARTURE&lt;span style=&quot;color: rgba(0, 0, 0, 0); font-family: monospace; font-size: 0px; text-align: start;&quot;&gt;%3CmxGraphModel%3E%3Croot%3E%3CmxCell%20id%3D%220%22%2F%3E%3CmxCell%20id%3D%221%22%20parent%3D%220%22%2F%3E%3CmxCell%20id%3D%222%22%20value%3D%22%22%20style%3D%22rounded%3D0%3BwhiteSpace%3Dwrap%3Bhtml%3D1%3B%22%20vertex%3D%221%22%20parent%3D%221%22%3E%3CmxGeometry%20y%3D%22180%22%20width%3D%22470%22%20height%3D%22370%22%20as%3D%22geometry%22%2F%3E%3C%2FmxCell%3E%3C%2Froot%3E%3C%2FmxGraphModel%3E&lt;/span&gt;" style="rounded=0;whiteSpace=wrap;html=1;" parent="1" vertex="1">
                    <mxGeometry x="670" y="-500" width="120" height="60" as="geometry"/>
                </mxCell>
                <mxCell id="Duz9NZ7eolLml3cjH5N_-47" value="DESTINATION" style="rounded=0;whiteSpace=wrap;html=1;" parent="1" vertex="1">
                    <mxGeometry x="670" y="-340" width="120" height="60" as="geometry"/>
                </mxCell>
                <mxCell id="Duz9NZ7eolLml3cjH5N_-48" value="" style="endArrow=none;dashed=1;html=1;rounded=0;exitX=1.003;exitY=0.22;exitDx=0;exitDy=0;exitPerimeter=0;entryX=0;entryY=0.5;entryDx=0;entryDy=0;" parent="1" source="Duz9NZ7eolLml3cjH5N_-18" target="Duz9NZ7eolLml3cjH5N_-46" edge="1">
                    <mxGeometry width="50" height="50" relative="1" as="geometry">
                        <mxPoint x="620" y="-420" as="sourcePoint"/>
                        <mxPoint x="670" y="-470" as="targetPoint"/>
                    </mxGeometry>
                </mxCell>
                <mxCell id="Duz9NZ7eolLml3cjH5N_-49" value="" style="endArrow=none;dashed=1;html=1;rounded=0;exitX=1;exitY=0.649;exitDx=0;exitDy=0;exitPerimeter=0;entryX=0;entryY=0.5;entryDx=0;entryDy=0;" parent="1" source="Duz9NZ7eolLml3cjH5N_-18" target="Duz9NZ7eolLml3cjH5N_-47" edge="1">
                    <mxGeometry width="50" height="50" relative="1" as="geometry">
                        <mxPoint x="630" y="-360" as="sourcePoint"/>
                        <mxPoint x="650" y="-320" as="targetPoint"/>
                    </mxGeometry>
                </mxCell>
                <mxCell id="Duz9NZ7eolLml3cjH5N_-53" value="" style="endArrow=classic;html=1;rounded=0;exitX=0.5;exitY=0;exitDx=0;exitDy=0;entryX=0.09;entryY=0.773;entryDx=0;entryDy=0;entryPerimeter=0;" parent="1" source="Duz9NZ7eolLml3cjH5N_-46" target="Duz9NZ7eolLml3cjH5N_-59" edge="1">
                    <mxGeometry width="50" height="50" relative="1" as="geometry">
                        <mxPoint x="930" y="-350" as="sourcePoint"/>
                        <mxPoint x="830" y="-640" as="targetPoint"/>
                    </mxGeometry>
                </mxCell>
                <mxCell id="Duz9NZ7eolLml3cjH5N_-56" value="Journey Details" style="rounded=0;whiteSpace=wrap;html=1;" parent="1" vertex="1">
                    <mxGeometry x="900" y="-530" width="160" height="60" as="geometry"/>
                </mxCell>
                <mxCell id="Duz9NZ7eolLml3cjH5N_-57" value="" style="endArrow=classic;html=1;rounded=0;entryX=0.5;entryY=0;entryDx=0;entryDy=0;exitX=0.797;exitY=0.927;exitDx=0;exitDy=0;exitPerimeter=0;" parent="1" source="Duz9NZ7eolLml3cjH5N_-59" target="Duz9NZ7eolLml3cjH5N_-56" edge="1">
                    <mxGeometry width="50" height="50" relative="1" as="geometry">
                        <mxPoint x="930" y="-600" as="sourcePoint"/>
                        <mxPoint x="910" y="-550" as="targetPoint"/>
                    </mxGeometry>
                </mxCell>
                <mxCell id="Duz9NZ7eolLml3cjH5N_-59" value="GET outbound&lt;br&gt;journey" style="ellipse;whiteSpace=wrap;html=1;" parent="1" vertex="1">
                    <mxGeometry x="810" y="-670" width="120" height="80" as="geometry"/>
                </mxCell>
                <mxCell id="Duz9NZ7eolLml3cjH5N_-61" value="" style="endArrow=classic;startArrow=classic;html=1;rounded=0;entryX=0.25;entryY=1;entryDx=0;entryDy=0;exitX=0.654;exitY=0.005;exitDx=0;exitDy=0;exitPerimeter=0;" parent="1" source="Duz9NZ7eolLml3cjH5N_-59" target="Duz9NZ7eolLml3cjH5N_-2" edge="1">
                    <mxGeometry width="50" height="50" relative="1" as="geometry">
                        <mxPoint x="720" y="-630" as="sourcePoint"/>
                        <mxPoint x="770" y="-680" as="targetPoint"/>
                    </mxGeometry>
                </mxCell>
                <mxCell id="Duz9NZ7eolLml3cjH5N_-62" value="Total distance" style="ellipse;whiteSpace=wrap;html=1;" parent="1" vertex="1">
                    <mxGeometry x="907.88" y="-390" width="120" height="80" as="geometry"/>
                </mxCell>
                <mxCell id="Duz9NZ7eolLml3cjH5N_-63" value="" style="endArrow=none;dashed=1;html=1;rounded=0;entryX=0;entryY=0;entryDx=0;entryDy=0;exitX=0.916;exitY=1.046;exitDx=0;exitDy=0;exitPerimeter=0;" parent="1" source="Duz9NZ7eolLml3cjH5N_-56" target="Duz9NZ7eolLml3cjH5N_-65" edge="1">
                    <mxGeometry width="50" height="50" relative="1" as="geometry">
                        <mxPoint x="1060" y="-445" as="sourcePoint"/>
                        <mxPoint x="1110" y="-495" as="targetPoint"/>
                    </mxGeometry>
                </mxCell>
                <mxCell id="Duz9NZ7eolLml3cjH5N_-64" value="" style="endArrow=none;dashed=1;html=1;rounded=0;entryX=0.5;entryY=1;entryDx=0;entryDy=0;exitX=0.5;exitY=0;exitDx=0;exitDy=0;" parent="1" source="Duz9NZ7eolLml3cjH5N_-62" target="Duz9NZ7eolLml3cjH5N_-56" edge="1">
                    <mxGeometry width="50" height="50" relative="1" as="geometry">
                        <mxPoint x="935" y="-430" as="sourcePoint"/>
                        <mxPoint x="985" y="-480" as="targetPoint"/>
                    </mxGeometry>
                </mxCell>
                <mxCell id="Duz9NZ7eolLml3cjH5N_-65" value="Connections" style="ellipse;whiteSpace=wrap;html=1;" parent="1" vertex="1">
                    <mxGeometry x="1095.75" y="-425.19" width="120" height="80" as="geometry"/>
                </mxCell>
                <mxCell id="4" style="edgeStyle=none;html=1;exitX=0.5;exitY=1;exitDx=0;exitDy=0;" edge="1" parent="1" source="Duz9NZ7eolLml3cjH5N_-67" target="3">
                    <mxGeometry relative="1" as="geometry"/>
                </mxCell>
                <mxCell id="Duz9NZ7eolLml3cjH5N_-67" value="Calculate cost&lt;br&gt;of outbound&lt;br&gt;journey" style="ellipse;whiteSpace=wrap;html=1;" parent="1" vertex="1">
                    <mxGeometry x="1140" y="-550" width="120" height="80" as="geometry"/>
                </mxCell>
                <mxCell id="Duz9NZ7eolLml3cjH5N_-68" value="" style="endArrow=none;dashed=1;html=1;rounded=0;entryX=1;entryY=0.5;entryDx=0;entryDy=0;exitX=0;exitY=0.5;exitDx=0;exitDy=0;" parent="1" source="Duz9NZ7eolLml3cjH5N_-67" target="Duz9NZ7eolLml3cjH5N_-56" edge="1">
                    <mxGeometry width="50" height="50" relative="1" as="geometry">
                        <mxPoint x="977.8800000000001" y="-380" as="sourcePoint"/>
                        <mxPoint x="980" y="-480" as="targetPoint"/>
                    </mxGeometry>
                </mxCell>
                <mxCell id="Duz9NZ7eolLml3cjH5N_-72" value="GET inbound&lt;br&gt;journey" style="ellipse;whiteSpace=wrap;html=1;" parent="1" vertex="1">
                    <mxGeometry x="1310" y="-670" width="120" height="80" as="geometry"/>
                </mxCell>
                <mxCell id="Duz9NZ7eolLml3cjH5N_-73" value="reverse journey airports" style="endArrow=none;dashed=1;html=1;rounded=0;entryX=0;entryY=0.5;entryDx=0;entryDy=0;exitX=1;exitY=0.5;exitDx=0;exitDy=0;" parent="1" source="Duz9NZ7eolLml3cjH5N_-59" target="Duz9NZ7eolLml3cjH5N_-72" edge="1">
                    <mxGeometry width="50" height="50" relative="1" as="geometry">
                        <mxPoint x="1070" y="-520" as="sourcePoint"/>
                        <mxPoint x="1120" y="-570" as="targetPoint"/>
                    </mxGeometry>
                </mxCell>
                <mxCell id="Duz9NZ7eolLml3cjH5N_-74" value="" style="endArrow=classic;startArrow=classic;html=1;rounded=0;entryX=0.166;entryY=0.07;entryDx=0;entryDy=0;entryPerimeter=0;" parent="1" source="Duz9NZ7eolLml3cjH5N_-2" target="Duz9NZ7eolLml3cjH5N_-72" edge="1">
                    <mxGeometry width="50" height="50" relative="1" as="geometry">
                        <mxPoint x="1170" y="-520" as="sourcePoint"/>
                        <mxPoint x="1220" y="-570" as="targetPoint"/>
                    </mxGeometry>
                </mxCell>
                <mxCell id="Duz9NZ7eolLml3cjH5N_-83" value="" style="shape=hexagon;perimeter=hexagonPerimeter2;whiteSpace=wrap;html=1;fixedSize=1;" parent="1" vertex="1">
                    <mxGeometry x="1410" y="-560" width="430" height="270" as="geometry"/>
                </mxCell>
                <mxCell id="Duz9NZ7eolLml3cjH5N_-84" value="Journey Details" style="rounded=0;whiteSpace=wrap;html=1;" parent="1" vertex="1">
                    <mxGeometry x="1450" y="-530" width="160" height="60" as="geometry"/>
                </mxCell>
                <mxCell id="Duz9NZ7eolLml3cjH5N_-85" value="Total distance" style="ellipse;whiteSpace=wrap;html=1;" parent="1" vertex="1">
                    <mxGeometry x="1457.88" y="-390" width="120" height="80" as="geometry"/>
                </mxCell>
                <mxCell id="Duz9NZ7eolLml3cjH5N_-86" value="" style="endArrow=none;dashed=1;html=1;rounded=0;entryX=0;entryY=0;entryDx=0;entryDy=0;exitX=0.916;exitY=1.046;exitDx=0;exitDy=0;exitPerimeter=0;" parent="1" source="Duz9NZ7eolLml3cjH5N_-84" target="Duz9NZ7eolLml3cjH5N_-88" edge="1">
                    <mxGeometry width="50" height="50" relative="1" as="geometry">
                        <mxPoint x="1610" y="-445" as="sourcePoint"/>
                        <mxPoint x="1660" y="-495" as="targetPoint"/>
                    </mxGeometry>
                </mxCell>
                <mxCell id="Duz9NZ7eolLml3cjH5N_-87" value="" style="endArrow=none;dashed=1;html=1;rounded=0;entryX=0.5;entryY=1;entryDx=0;entryDy=0;exitX=0.5;exitY=0;exitDx=0;exitDy=0;" parent="1" source="Duz9NZ7eolLml3cjH5N_-85" target="Duz9NZ7eolLml3cjH5N_-84" edge="1">
                    <mxGeometry width="50" height="50" relative="1" as="geometry">
                        <mxPoint x="1485" y="-430" as="sourcePoint"/>
                        <mxPoint x="1535" y="-480" as="targetPoint"/>
                    </mxGeometry>
                </mxCell>
                <mxCell id="5" style="edgeStyle=none;html=1;exitX=0.5;exitY=1;exitDx=0;exitDy=0;" edge="1" parent="1" source="Duz9NZ7eolLml3cjH5N_-89" target="3">
                    <mxGeometry relative="1" as="geometry"/>
                </mxCell>
                <mxCell id="Duz9NZ7eolLml3cjH5N_-88" value="Connections" style="ellipse;whiteSpace=wrap;html=1;" parent="1" vertex="1">
                    <mxGeometry x="1645.75" y="-425.19" width="120" height="80" as="geometry"/>
                </mxCell>
                <mxCell id="Duz9NZ7eolLml3cjH5N_-89" value="Calculate cost&lt;br&gt;of inbound&lt;br&gt;journey" style="ellipse;whiteSpace=wrap;html=1;" parent="1" vertex="1">
                    <mxGeometry x="1690" y="-550" width="120" height="80" as="geometry"/>
                </mxCell>
                <mxCell id="Duz9NZ7eolLml3cjH5N_-90" value="" style="endArrow=none;dashed=1;html=1;rounded=0;entryX=1;entryY=0.5;entryDx=0;entryDy=0;exitX=0;exitY=0.5;exitDx=0;exitDy=0;" parent="1" source="Duz9NZ7eolLml3cjH5N_-89" target="Duz9NZ7eolLml3cjH5N_-84" edge="1">
                    <mxGeometry width="50" height="50" relative="1" as="geometry">
                        <mxPoint x="1527.88" y="-380" as="sourcePoint"/>
                        <mxPoint x="1530" y="-480" as="targetPoint"/>
                    </mxGeometry>
                </mxCell>
                <mxCell id="Duz9NZ7eolLml3cjH5N_-91" value="" style="endArrow=classic;html=1;rounded=0;exitX=1;exitY=1;exitDx=0;exitDy=0;entryX=0.5;entryY=0;entryDx=0;entryDy=0;" parent="1" source="Duz9NZ7eolLml3cjH5N_-72" target="Duz9NZ7eolLml3cjH5N_-84" edge="1">
                    <mxGeometry width="50" height="50" relative="1" as="geometry">
                        <mxPoint x="1250" y="-380" as="sourcePoint"/>
                        <mxPoint x="1300" y="-430" as="targetPoint"/>
                    </mxGeometry>
                </mxCell>
                <mxCell id="3" value="Summary in Context" style="ellipse;whiteSpace=wrap;html=1;aspect=fixed;" vertex="1" parent="1">
                    <mxGeometry x="1155" y="-40" width="490" height="490" as="geometry"/>
                </mxCell>
            </root>
        </mxGraphModel>
    </diagram>
</mxfile>